<svg width="612" height="612" viewBox="0 0 612 612" fill="none" xmlns="http://www.w3.org/2000/svg">
<path d="M243.958 340.177L152.579 431.556L153 382.5C153 371.943 144.432 363.375 133.875 363.375C123.318 363.375 114.75 371.943 114.75 382.5V478.125C114.75 483.786 117.083 488.356 120.793 491.513C124.254 495.051 129.074 497.25 134.41 497.25H229.5C240.057 497.25 248.625 488.682 248.625 478.125C248.625 467.568 240.057 459 229.5 459H179.22L271.001 367.219L243.958 340.177ZM229.5 153C240.057 153 248.625 144.432 248.625 133.875C248.625 123.318 240.057 114.75 229.5 114.75H134.411C129.075 114.75 124.255 116.969 120.794 120.487C117.084 123.643 114.751 128.214 114.751 133.875V229.5C114.751 240.057 123.319 248.625 133.876 248.625C144.433 248.625 153 240.057 153 229.5L152.579 180.425L243.958 271.804L271.001 244.761L179.239 153H229.5ZM478.125 363.375C467.568 363.375 459 371.943 459 382.5L459.421 431.575L368.041 340.195L340.999 367.238L432.779 459H382.5C371.943 459 363.375 467.568 363.375 478.125C363.375 488.682 371.943 497.25 382.5 497.25H477.59C482.944 497.25 487.745 495.031 491.206 491.493C494.917 488.356 497.25 483.786 497.25 478.125V382.5C497.25 371.943 488.682 363.375 478.125 363.375ZM477.59 114.75H382.5C371.943 114.75 363.375 123.318 363.375 133.875C363.375 144.432 371.943 153 382.5 153H432.761L340.98 244.781L368.023 271.824L459.402 180.445L459 229.5C459 240.057 467.568 248.625 478.125 248.625C488.682 248.625 497.25 240.057 497.25 229.5V133.875C497.25 128.214 494.897 123.643 491.206 120.487C487.745 116.969 482.926 114.75 477.59 114.75ZM535.5 0H76.5C34.253 0 0 34.253 0 76.5V535.5C0 577.747 34.253 612 76.5 612H535.5C577.747 612 612 577.747 612 535.5V76.5C612 34.253 577.747 0 535.5 0ZM573.75 535.5C573.75 556.633 556.633 573.75 535.5 573.75H76.5C55.367 573.75 38.25 556.633 38.25 535.5V76.5C38.25 55.386 55.367 38.25 76.5 38.25H535.5C556.633 38.25 573.75 55.386 573.75 76.5V535.5Z" fill="#666666"/>
</svg>
