<svg width="494" height="494" viewBox="0 0 494 494" fill="none" xmlns="http://www.w3.org/2000/svg">
<path d="M114.352 297.465L16.8428 394.966C-5.60525 417.429 -5.62325 453.866 16.8428 476.338C39.3228 498.808 75.7487 498.8 98.2287 476.338L195.663 378.898C179.044 369.31 163.571 357.482 149.64 343.549C135.567 329.477 123.816 313.954 114.352 297.465Z" fill="#666666"/>
<path d="M438.242 54.935C402.814 19.509 355.699 0 305.594 0C255.485 0 208.389 19.519 172.953 54.952C99.8047 128.099 99.8047 247.108 172.953 320.248C208.389 355.69 255.484 375.206 305.594 375.206C355.699 375.206 402.8 355.689 438.229 320.256C473.678 284.833 493.198 237.726 493.198 187.612C493.197 137.497 473.678 90.382 438.242 54.935ZM403.28 285.3C377.18 311.398 342.49 325.777 305.593 325.777C268.696 325.777 234.001 311.399 207.905 285.3C154.032 231.428 154.032 143.771 207.905 89.9C234.002 63.809 268.696 49.433 305.593 49.433C342.503 49.433 377.194 63.802 403.293 89.893C429.395 116 443.762 150.7 443.762 187.613C443.763 224.515 429.396 259.208 403.28 285.3Z" fill="#666666"/>
<path d="M369.1 162.888L330.306 162.891L302 162.897L280.877 162.894L242.113 162.897C228.468 162.897 217.397 173.966 217.397 187.612C217.397 201.264 228.468 212.327 242.113 212.327L280.877 212.325H305.5H330.306V212.322L369.1 212.32C382.746 212.32 393.819 201.248 393.819 187.603C393.818 173.95 382.746 162.888 369.1 162.888Z" fill="#666666"/>
</svg>
